<svg width="687" height="634" fill="none" xmlns="http://www.w3.org/2000/svg"><path d="M248.605 207H170v78l73.823-21.092L248.605 207Z" fill="#fff"/><path d="m284.252 116 3.361-40H52.387l11.008 131h185.21l-4.782 56.908L170 285l-73.823-21.092L93.244 229h-28l5.86 69.744c2.894 0 67.136 18.837 98.896 28.256l98.895-28.256L279.966 167H88.034l-4.286-51h200.504Z" fill="#fff"/><path d="m287.613 76-3.361 40H170v51h109.966l-11.071 131.744L170 327v42l114.747-32.785L310.227 33H170v43h117.613ZM65.244 229h28l2.933 34.908L170 285v-78H63.395L52.387 76H170V33H29.773l25.48 303.215L170 369v-42c-31.76-9.419-96.002-28.256-98.895-28.256L65.243 229Z" fill="#fff"/><path d="m83.748 116 4.286 51H170v-51H83.748Z" fill="#fff"/><path fill-rule="evenodd" clip-rule="evenodd" d="M310 357 340 0H0l30 357 140 40 140-40Zm-25.253-20.785L170 369 55.253 336.215 29.773 33h280.454l-25.48 303.215Z" fill="#fff"/><path fill-rule="evenodd" clip-rule="evenodd" d="m340 0-30 357-140 40-140-40L0 0h340Zm-52.387 76-3.361 40H83.748l4.286 51h191.932l-11.071 131.744L170 327c-31.76-9.419-96.002-28.256-98.895-28.256L65.243 229h28l2.933 34.908L170 285l73.823-21.092L248.605 207H63.395L52.387 76h235.226Z" fill="url(#a)"/><path d="m284.252 116 3.361-40H52.387l11.008 131h185.21l-4.782 56.908L170 285l-73.823-21.092L93.244 229h-28l5.86 69.744c2.894 0 67.136 18.837 98.896 28.256l98.895-28.256L279.966 167H88.034l-4.286-51h200.504Z" fill="url(#b)"/><path d="M595.605 208H517v78l73.823-21.092L595.605 208Z" fill="#fff"/><path d="m634.613 77-3.361 40L517 168h109.966l-11.071 131.744L517 328v42l114.747-32.785L657.227 34H517v43h117.613Z" fill="#fff"/><path fill-rule="evenodd" clip-rule="evenodd" d="M347 1h340l-30 357-140 40-140-40L347 1Zm284.747 336.215L517 370l-114.747-32.785L376.773 34h280.454l-25.48 303.215Z" fill="#fff"/><path d="M626.966 168H517v40h78.605l-4.782 56.908L517 286v42l98.895-28.256L626.966 168ZM631.252 117l3.361-40H517v91l114.252-51ZM399.387 77l3.361 40H517V77H399.387ZM407.034 168l3.361 40H517v-91l-109.966 51ZM440.244 230h-28l5.861 69.744L517 328v-42l-73.823-21.092L440.244 230Z" fill="#fff"/><path d="m402.748 117-3.361-40H517V34H376.773l25.48 303.215L517 370v-42l-98.895-28.256L412.244 230h28l2.933 34.908L517 286v-78H410.395l-3.361-40L517 117H402.748Z" fill="#fff"/><path fill-rule="evenodd" clip-rule="evenodd" d="M347 1h340l-30 357-140 40-140-40L347 1Z" fill="url(#c)"/><path d="M626.966 168H517v40h78.605l-4.782 56.908L517 286v42l98.895-28.256L626.966 168Z" fill="url(#d)"/><path d="m631.252 117 3.361-40H517v91l114.252-51Z" fill="url(#e)"/><path d="m399.387 77 3.361 40H517V77H399.387Z" fill="url(#f)"/><path d="m407.034 168 3.361 40H517v-91l-109.966 51Z" fill="url(#g)"/><path d="M440.244 230h-28l5.861 69.744L517 328v-42l-73.823-21.092L440.244 230Z" fill="url(#h)"/><path fill-rule="evenodd" clip-rule="evenodd" d="M485.227 270H345v336l114.747-32.785L485.227 270Zm-22.614 43-3.361 40H391v56.5l63.966-5.5-11.071 131.744L359 560v-42l59.823-17.092L423.605 444 359 455.5V313h103.613ZM345 606V270H204.773l25.48 303.215L345 606Zm-98.895-70.256-3.617-43.033L299 508.857V313h32v247l-84.895-24.256Z" fill="#fff"/><path fill-rule="evenodd" clip-rule="evenodd" d="M175 237h340l-30 357-140 40-140-40-30-357Zm170 33h140.227l-25.48 303.215L345 606l-114.747-32.785L204.773 270H345Z" fill="#fff"/><path d="m242.488 492.711 3.617 43.033L331 560V313h-32v195.857l-56.512-16.146ZM459.252 353l3.361-40H359v142.5l64.605-11.5-4.782 56.908L359 518v42l84.895-24.256L454.966 404 391 409.5V353h68.252Z" fill="#fff"/><path fill-rule="evenodd" clip-rule="evenodd" d="m462.613 313-3.361 40H391v56.5l63.966-5.5-11.071 131.744L359 560v-42l59.823-17.092L423.605 444 359 455.5V313h103.613Z" fill="url(#i)"/><path fill-rule="evenodd" clip-rule="evenodd" d="m246.105 535.744-3.617-43.033L299 508.857V313h32v247l-84.895-24.256Z" fill="url(#j)"/><path fill-rule="evenodd" clip-rule="evenodd" d="M175 237h340l-30 357-140 40-140-40-30-357Z" fill="url(#k)"/><path d="m242.488 492.711 3.617 43.033L331 560V313h-32v195.857l-56.512-16.146Z" fill="url(#l)"/><path d="m459.252 353 3.361-40H359v142.5l64.605-11.5-4.782 56.908L359 518v42l84.895-24.256L454.966 404 391 409.5V353h68.252Z" fill="url(#m)"/><defs><linearGradient id="b" x1="340" y1="0" x2="30" y2="357" gradientUnits="userSpaceOnUse"><stop stop-color="#C24725"/><stop offset=".526" stop-color="#fff"/><stop offset="1" stop-color="#C24725"/></linearGradient><linearGradient id="d" x1="687" y1="1" x2="378.5" y2="357.5" gradientUnits="userSpaceOnUse"><stop stop-color="#0025A7"/><stop offset=".516" stop-color="#fff"/><stop offset="1" stop-color="#0025A7"/></linearGradient><linearGradient id="e" x1="687" y1="1" x2="378.5" y2="357.5" gradientUnits="userSpaceOnUse"><stop stop-color="#0025A7"/><stop offset=".516" stop-color="#fff"/><stop offset="1" stop-color="#0025A7"/></linearGradient><linearGradient id="f" x1="687" y1="1" x2="378.5" y2="357.5" gradientUnits="userSpaceOnUse"><stop stop-color="#0025A7"/><stop offset=".516" stop-color="#fff"/><stop offset="1" stop-color="#0025A7"/></linearGradient><linearGradient id="g" x1="687" y1="1" x2="378.5" y2="357.5" gradientUnits="userSpaceOnUse"><stop stop-color="#0025A7"/><stop offset=".516" stop-color="#fff"/><stop offset="1" stop-color="#0025A7"/></linearGradient><linearGradient id="h" x1="687" y1="1" x2="378.5" y2="357.5" gradientUnits="userSpaceOnUse"><stop stop-color="#0025A7"/><stop offset=".516" stop-color="#fff"/><stop offset="1" stop-color="#0025A7"/></linearGradient><linearGradient id="l" x1="515" y1="237" x2="206.5" y2="593.5" gradientUnits="userSpaceOnUse"><stop stop-color="#F9D63C"/><stop offset=".553" stop-color="#fff"/><stop offset="1" stop-color="#F9D63C"/></linearGradient><linearGradient id="m" x1="515" y1="237" x2="206.5" y2="593.5" gradientUnits="userSpaceOnUse"><stop stop-color="#F9D63C"/><stop offset=".553" stop-color="#fff"/><stop offset="1" stop-color="#F9D63C"/></linearGradient><radialGradient id="a" cx="0" cy="0" r="1" gradientUnits="userSpaceOnUse" gradientTransform="matrix(0 397 -340 0 170 0)"><stop stop-color="#A03F24"/><stop offset=".087" stop-color="#C24725"/><stop offset=".296" stop-color="#D15B2B"/><stop offset=".731" stop-color="#C24725"/><stop offset=".851" stop-color="#D15B2B"/><stop offset="1" stop-color="#D15B2B" stop-opacity=".7"/></radialGradient><radialGradient id="c" cx="0" cy="0" r="1" gradientUnits="userSpaceOnUse" gradientTransform="matrix(0 397 -340 0 517 1)"><stop stop-color="#001662"/><stop offset=".067" stop-color="#0025A7"/><stop offset=".319" stop-color="#0025A7" stop-opacity=".5"/><stop offset=".692" stop-color="#87A1FF"/><stop offset=".93" stop-color="#4B6AD8" stop-opacity=".8"/><stop offset="1" stop-color="#285EA8"/></radialGradient><radialGradient id="i" cx="0" cy="0" r="1" gradientUnits="userSpaceOnUse" gradientTransform="matrix(0 397 -340 0 345 237)"><stop stop-color="#D5B931"/><stop offset=".068" stop-color="#D5B931" stop-opacity=".8"/><stop offset=".345" stop-color="#F9D63C"/><stop offset=".657" stop-color="#D5B931"/><stop offset=".939" stop-color="#FDD93D"/><stop offset="1" stop-color="#FDD93D" stop-opacity=".7"/></radialGradient><radialGradient id="j" cx="0" cy="0" r="1" gradientUnits="userSpaceOnUse" gradientTransform="matrix(0 397 -340 0 345 237)"><stop stop-color="#D5B931"/><stop offset=".068" stop-color="#D5B931" stop-opacity=".8"/><stop offset=".345" stop-color="#F9D63C"/><stop offset=".657" stop-color="#D5B931"/><stop offset=".939" stop-color="#FDD93D"/><stop offset="1" stop-color="#FDD93D" stop-opacity=".7"/></radialGradient><radialGradient id="k" cx="0" cy="0" r="1" gradientUnits="userSpaceOnUse" gradientTransform="matrix(0 397 -340 0 345 237)"><stop stop-color="#D5B931"/><stop offset=".068" stop-color="#D5B931" stop-opacity=".8"/><stop offset=".345" stop-color="#F9D63C"/><stop offset=".657" stop-color="#D5B931"/><stop offset=".939" stop-color="#FDD93D"/><stop offset="1" stop-color="#FDD93D" stop-opacity=".7"/></radialGradient></defs></svg>